<?xml version="1.0" encoding="utf-8"?>
<!-- Generator: Adobe Illustrator 24.1.0, SVG Export Plug-In . SVG Version: 6.00 Build 0)  -->
<svg version="1.1" id="Layer_1" xmlns="http://www.w3.org/2000/svg" xmlns:xlink="http://www.w3.org/1999/xlink" x="0px" y="0px"
	 viewBox="0 0 192 192" enable-background="new 0 0 192 192" xml:space="preserve">
<g>
	<path fill="#F3923B" d="M137.5,32L137.5,32c12.4,0,22.5,10.1,22.5,22.5l0,83c0,12.4-10.1,22.5-22.5,22.5h0
		c-12.4,0-22.5-10.1-22.5-22.5l0-83C115,42.1,125.1,32,137.5,32z"/>
	<path fill="#E97534" d="M32,137.5L32,137.5c0-12.4,10.1-22.5,22.5-22.5l83,0c12.4,0,22.5,10.1,22.5,22.5v0
		c0,12.4-10.1,22.5-22.5,22.5l-83,0C42.1,160,32,149.9,32,137.5z"/>
	<path fill="#455A65" d="M54.5,32L54.5,32C66.9,32,77,42.1,77,54.5l0,83c0,12.4-10.1,22.5-22.5,22.5h0C42.1,160,32,149.9,32,137.5
		l0-83C32,42.1,42.1,32,54.5,32z"/>
</g>
</svg>
